<svg width="144" height="36" viewBox="0 0 144 36" fill="none" xmlns="http://www.w3.org/2000/svg">
<g filter="url(#filter0_d_672_2295)">
<path d="M34.4664 0H4.00488L8.67796 4.67308H34.4664C38.8635 4.67308 42.428 8.23758 42.428 12.6346C42.428 17.0317 38.8635 20.5962 34.4664 20.5962H31.178L23.3895 12.8077H16.4664L39.6587 36H47.101L35.5049 24.5769H35.851C42.1598 24.5769 47.2741 19.4626 47.2741 13.1538V12.8077C47.2741 5.7342 41.5399 0 34.4664 0Z" fill="#007DFE"/>
<path d="M23.7351 36H31.0044L15.4274 20.4231H8.1582L23.7351 36Z" fill="white"/>
<path d="M56.2744 28.3691V7.26929H64.0153C65.7021 7.26929 67.0876 7.56067 68.1719 8.14342C69.2764 8.70609 70.0996 9.47975 70.6418 10.4644C71.184 11.429 71.4551 12.5041 71.4551 13.6897C71.4551 14.9757 71.1137 16.1513 70.431 17.2163C69.7683 18.2814 68.7242 19.055 67.2985 19.5373L71.6659 28.3691H67.2382L63.3226 20.0498H60.1298V28.3691H56.2744ZM60.1298 17.2163H63.7744C65.0595 17.2163 66.0033 16.9049 66.6057 16.2819C67.2081 15.659 67.5093 14.8351 67.5093 13.8102C67.5093 12.8055 67.2081 12.0017 66.6057 11.3988C66.0234 10.796 65.0696 10.4945 63.7443 10.4945H60.1298V17.2163Z" fill="white"/>
<path d="M78.9856 28.7308C77.1182 28.7308 75.6724 28.1481 74.6483 26.9826C73.6443 25.817 73.1423 24.109 73.1423 21.8583V13.4184H76.9676V21.4966C76.9676 22.7827 77.2286 23.7673 77.7507 24.4506C78.2728 25.1338 79.0961 25.4754 80.2205 25.4754C81.2848 25.4754 82.1583 25.0936 82.841 24.33C83.5438 23.5664 83.8952 22.5014 83.8952 21.1349V13.4184H87.7506V28.3691H84.347L84.0458 25.8371C83.584 26.7213 82.9113 27.4246 82.0278 27.9471C81.1643 28.4696 80.1503 28.7308 78.9856 28.7308Z" fill="white"/>
<path d="M97.4604 28.7308C95.9343 28.7308 94.589 28.3993 93.4243 27.7361C92.2597 27.073 91.336 26.1486 90.6532 24.963C89.9906 23.7774 89.6593 22.421 89.6593 20.8937C89.6593 19.3665 89.9906 18.0101 90.6532 16.8245C91.336 15.6389 92.2597 14.7145 93.4243 14.0514C94.589 13.3882 95.9343 13.0567 97.4604 13.0567C99.3681 13.0567 100.974 13.559 102.28 14.5638C103.585 15.5485 104.418 16.9149 104.78 18.6632H100.713C100.513 17.9398 100.111 17.3771 99.5086 16.9752C98.9263 16.5532 98.2335 16.3422 97.4303 16.3422C96.3661 16.3422 95.4625 16.7441 94.7195 17.5479C93.9765 18.3517 93.605 19.467 93.605 20.8937C93.605 22.3205 93.9765 23.4358 94.7195 24.2396C95.4625 25.0434 96.3661 25.4453 97.4303 25.4453C98.2335 25.4453 98.9263 25.2443 99.5086 24.8424C100.111 24.4405 100.513 23.8678 100.713 23.1243H104.78C104.418 24.8123 103.585 26.1687 102.28 27.1936C100.974 28.2184 99.3681 28.7308 97.4604 28.7308Z" fill="white"/>
<path d="M113.893 28.7308C112.387 28.7308 111.052 28.4093 109.887 27.7663C108.723 27.1232 107.809 26.2189 107.146 25.0534C106.484 23.8879 106.153 22.5415 106.153 21.0143C106.153 19.467 106.474 18.0905 107.116 16.8848C107.779 15.6791 108.683 14.7447 109.827 14.0815C110.992 13.3983 112.357 13.0567 113.924 13.0567C115.389 13.0567 116.685 13.3782 117.809 14.0212C118.934 14.6643 119.807 15.5485 120.43 16.6738C121.072 17.779 121.393 19.0149 121.393 20.3813C121.393 20.6024 121.383 20.8335 121.363 21.0746C121.363 21.3157 121.353 21.5669 121.333 21.8282H109.978C110.058 22.9937 110.46 23.908 111.183 24.5711C111.926 25.2343 112.819 25.5659 113.863 25.5659C114.646 25.5659 115.299 25.395 115.821 25.0534C116.363 24.6917 116.765 24.2295 117.026 23.6669H120.942C120.66 24.6113 120.189 25.4754 119.526 26.2591C118.883 27.0227 118.08 27.6256 117.116 28.0677C116.173 28.5098 115.098 28.7308 113.893 28.7308ZM113.924 16.1915C112.98 16.1915 112.146 16.4628 111.424 17.0054C110.701 17.5278 110.239 18.3316 110.038 19.4168H117.478C117.418 18.4321 117.056 17.6484 116.393 17.0656C115.731 16.4829 114.907 16.1915 113.924 16.1915Z" fill="white"/>
<path d="M129.461 28.3691C127.894 28.3691 126.639 27.9873 125.696 27.2237C124.752 26.4601 124.28 25.1037 124.28 23.1544V16.6436H121.72V13.4184H124.28L124.732 9.40941H128.135V13.4184H132.172V16.6436H128.135V23.1846C128.135 23.908 128.286 24.4104 128.587 24.6917C128.908 24.953 129.451 25.0836 130.214 25.0836H132.081V28.3691H129.461Z" fill="white"/>
<path d="M140.701 28.7308C139.255 28.7308 137.95 28.3993 136.785 27.7361C135.641 27.073 134.727 26.1587 134.044 24.9931C133.382 23.8075 133.05 22.4411 133.05 20.8937C133.05 19.3464 133.392 17.99 134.074 16.8245C134.757 15.6389 135.671 14.7145 136.815 14.0514C137.98 13.3882 139.285 13.0567 140.731 13.0567C142.157 13.0567 143.442 13.3882 144.586 14.0514C145.751 14.7145 146.665 15.6389 147.327 16.8245C148.01 17.99 148.351 19.3464 148.351 20.8937C148.351 22.4411 148.01 23.8075 147.327 24.9931C146.665 26.1587 145.751 27.073 144.586 27.7361C143.422 28.3993 142.126 28.7308 140.701 28.7308ZM140.701 25.385C141.705 25.385 142.578 25.0132 143.321 24.2697C144.064 23.5061 144.436 22.3808 144.436 20.8937C144.436 19.4067 144.064 18.2914 143.321 17.5479C142.578 16.7843 141.715 16.4025 140.731 16.4025C139.707 16.4025 138.823 16.7843 138.08 17.5479C137.357 18.2914 136.996 19.4067 136.996 20.8937C136.996 22.3808 137.357 23.5061 138.08 24.2697C138.823 25.0132 139.697 25.385 140.701 25.385Z" fill="white"/>
</g>
<defs>
<filter id="filter0_d_672_2295" x="0.00488281" y="0" width="144" height="36" filterUnits="userSpaceOnUse" color-interpolation-filters="sRGB">
<feFlood flood-opacity="0" result="BackgroundImageFix"/>
<feColorMatrix in="SourceAlpha" type="matrix" values="0 0 0 0 0 0 0 0 0 0 0 0 0 0 0 0 0 0 127 0" result="hardAlpha"/>
<feOffset dy="4"/>
<feGaussianBlur stdDeviation="2"/>
<feComposite in2="hardAlpha" operator="out"/>
<feColorMatrix type="matrix" values="0 0 0 0 0 0 0 0 0 0 0 0 0 0 0 0 0 0 0.25 0"/>
<feBlend mode="normal" in2="BackgroundImageFix" result="effect1_dropShadow_672_2295"/>
<feBlend mode="normal" in="SourceGraphic" in2="effect1_dropShadow_672_2295" result="shape"/>
</filter>
</defs>
</svg>
