<svg width="24" height="24" viewBox="0 0 24 24" fill="none" xmlns="http://www.w3.org/2000/svg">
<path d="M23.6023 7.05111C23.5479 5.81703 23.3483 4.96861 23.0624 4.23345C22.7675 3.45309 22.3138 2.75444 21.7194 2.17364C21.1386 1.58381 20.4353 1.12548 19.664 0.835175C18.9246 0.549297 18.0806 0.349732 16.8465 0.295322C15.6032 0.236303 15.2085 0.222656 12.0552 0.222656C8.90181 0.222656 8.50713 0.236303 7.26845 0.290714C6.03438 0.345124 5.18596 0.544866 4.45098 0.830569C3.67043 1.12548 2.97178 1.5792 2.39099 2.17364C1.80116 2.75444 1.34301 3.4577 1.05252 4.22902C0.766644 4.96861 0.567079 5.81242 0.512668 7.0465C0.45365 8.28981 0.440002 8.6845 0.440002 11.8379C0.440002 14.9912 0.45365 15.3858 0.50806 16.6246C0.562471 17.8586 0.762213 18.7071 1.04809 19.4422C1.34301 20.2225 1.80116 20.9212 2.39099 21.502C2.97178 22.0918 3.67505 22.5502 4.44636 22.8405C5.18596 23.1264 6.02977 23.3259 7.26402 23.3803C8.50256 23.4349 8.8974 23.4484 12.0508 23.4484C15.2041 23.4484 15.5987 23.4349 16.8375 23.3803C18.0715 23.3259 18.92 23.1264 19.655 22.8405C21.2158 22.237 22.4499 21.0029 23.0534 19.4422C23.3391 18.7026 23.5389 17.8586 23.5932 16.6246C23.6476 15.3858 23.6613 14.9912 23.6613 11.8379C23.6613 8.6845 23.6567 8.28981 23.6023 7.05111ZM21.5107 16.5338C21.4608 17.6681 21.2703 18.2806 21.1115 18.6889C20.7212 19.7008 19.9181 20.5038 18.9063 20.8941C18.4979 21.0529 17.881 21.2435 16.7511 21.2932C15.5261 21.3478 15.1587 21.3613 12.0597 21.3613C8.96089 21.3613 8.58881 21.3478 7.36824 21.2932C6.23394 21.2435 5.62143 21.0529 5.21308 20.8941C4.70956 20.708 4.25123 20.4131 3.87922 20.0274C3.49355 19.6508 3.19864 19.1971 3.01255 18.6936C2.85375 18.2852 2.66322 17.6681 2.61342 16.5384C2.55883 15.3134 2.54536 14.9458 2.54536 11.8468C2.54536 8.74791 2.55883 8.37591 2.61342 7.1555C2.66322 6.0212 2.85375 5.40868 3.01255 5.00034C3.19864 4.49664 3.49355 4.03849 3.88383 3.6663C4.26027 3.28064 4.71398 2.98572 5.21768 2.79981C5.62603 2.641 6.24316 2.45048 7.37284 2.4005C8.59787 2.34609 8.96545 2.33244 12.0642 2.33244C15.1677 2.33244 15.5352 2.34609 16.7558 2.4005C17.89 2.45048 18.5026 2.641 18.9109 2.79981C19.4144 2.98572 19.8728 3.28064 20.2448 3.6663C20.6305 4.04292 20.9253 4.49664 21.1115 5.00034C21.2703 5.40868 21.4608 6.02563 21.5107 7.1555C21.5651 8.38055 21.5788 8.74791 21.5788 11.8468C21.5788 14.9458 21.5651 15.3087 21.5107 16.5338Z" fill="white"/>
<path d="M12.0555 5.87134C8.76167 5.87134 6.08917 8.54364 6.08917 11.8378C6.08917 15.1318 8.76167 17.8041 12.0555 17.8041C15.3496 17.8041 18.0219 15.1318 18.0219 11.8378C18.0219 8.54364 15.3496 5.87134 12.0555 5.87134ZM12.0555 15.7079C9.9187 15.7079 8.18528 13.9748 8.18528 11.8378C8.18528 9.70067 9.9187 7.96748 12.0555 7.96748C14.1926 7.96748 15.9258 9.70067 15.9258 11.8378C15.9258 13.9748 14.1926 15.7079 12.0555 15.7079Z" fill="white"/>
<path d="M19.6503 5.63556C19.6503 6.40475 19.0266 7.02843 18.2572 7.02843C17.4881 7.02843 16.8644 6.40475 16.8644 5.63556C16.8644 4.86619 17.4881 4.24268 18.2572 4.24268C19.0266 4.24268 19.6503 4.86619 19.6503 5.63556Z" fill="white"/>
</svg>
