<svg width="24" height="24" viewBox="0 0 24 24" fill="none" xmlns="http://www.w3.org/2000/svg">
<g clip-path="url(#clip0_736_18)">
<path d="M21.7426 0.227539H2.39585C1.88292 0.228129 1.39118 0.43214 1.02849 0.794843C0.665783 1.15754 0.461772 1.64928 0.461182 2.16221V21.509C0.461772 22.0218 0.665783 22.5136 1.02849 22.8763C1.39118 23.239 1.88292 23.4431 2.39585 23.4436H21.7426C22.2554 23.4431 22.7473 23.239 23.1099 22.8763C23.4727 22.5136 23.6767 22.0218 23.6772 21.509V2.16221C23.6767 1.64928 23.4727 1.15754 23.1099 0.794843C22.7473 0.43214 22.2554 0.228129 21.7426 0.227539ZM8.19986 17.6397C8.19986 17.8962 8.0979 18.1423 7.91651 18.3237C7.73516 18.5052 7.48907 18.6071 7.23253 18.6071C6.97599 18.6071 6.72991 18.5052 6.54853 18.3237C6.36715 18.1423 6.2652 17.8962 6.2652 17.6397V9.90102C6.2652 9.64445 6.36715 9.39833 6.54853 9.21702C6.72991 9.03562 6.97599 8.93366 7.23253 8.93366C7.48907 8.93366 7.73516 9.03562 7.91651 9.21702C8.0979 9.39833 8.19986 9.64445 8.19986 9.90102V17.6397ZM7.23253 7.48266C6.94552 7.48266 6.665 7.39753 6.42636 7.23811C6.18778 7.07869 6.0018 6.85205 5.89198 6.5869C5.78216 6.32185 5.75342 6.03006 5.80941 5.74859C5.8654 5.46712 6.00359 5.20858 6.20652 5.00566C6.40942 4.80273 6.668 4.66453 6.94949 4.60854C7.23089 4.55255 7.52264 4.5813 7.78776 4.69112C8.05292 4.80094 8.27961 4.98692 8.43901 5.22553C8.59842 5.46415 8.6835 5.74469 8.6835 6.03165C8.6835 6.41646 8.53068 6.78559 8.25863 7.0577C7.9865 7.32982 7.61734 7.48266 7.23253 7.48266ZM18.8405 17.6397C18.8405 17.8962 18.7386 18.1423 18.5573 18.3237C18.3759 18.5052 18.1297 18.6071 17.8733 18.6071C17.6167 18.6071 17.3706 18.5052 17.1893 18.3237C17.0079 18.1423 16.9059 17.8962 16.9059 17.6397V13.2866C16.9059 12.6453 16.6511 12.0302 16.1976 11.5767C15.744 11.1232 15.1289 10.8684 14.4876 10.8684C13.8462 10.8684 13.2311 11.1232 12.7775 11.5767C12.324 12.0302 12.0692 12.6453 12.0692 13.2866V17.6397C12.0692 17.8962 11.9672 18.1423 11.7859 18.3237C11.6045 18.5052 11.3584 18.6071 11.1019 18.6071C10.8454 18.6071 10.5992 18.5052 10.4179 18.3237C10.2365 18.1423 10.1346 17.8962 10.1346 17.6397V9.90102C10.1344 9.66326 10.222 9.43379 10.3805 9.25642C10.5389 9.07905 10.757 8.96633 10.9933 8.93978C11.2297 8.91314 11.4674 8.97446 11.6614 9.11227C11.8552 9.24992 11.9916 9.45407 12.0444 9.68594C12.6985 9.2414 13.4616 8.9836 14.2514 8.94024C15.0412 8.89689 15.8278 9.06969 16.5267 9.43998C17.2256 9.81028 17.8104 10.3641 18.2181 11.0419C18.6257 11.7196 18.8409 12.4958 18.8405 13.2866V17.6397Z" fill="white"/>
</g>
<defs>
<clipPath id="clip0_736_18">
<rect width="24" height="24" fill="white"/>
</clipPath>
</defs>
</svg>
