<svg width="24" height="24" viewBox="0 0 24 24" fill="none" xmlns="http://www.w3.org/2000/svg">
<path d="M23.0052 1.42502C22.752 1.22244 22.4481 1.07051 22.1443 1.01987C21.8404 0.969224 21.4859 1.01987 21.2327 1.12116L1.12707 9.0216C0.772565 9.17353 0.4687 9.42673 0.266125 9.7306C0.0635495 10.0345 -0.037738 10.4396 0.0129057 10.7941C0.0635495 11.1486 0.215481 11.5031 0.4687 11.807C0.721918 12.1109 1.07642 12.2628 1.43093 12.3641L6.54595 13.3769V19.7581C6.54595 20.1126 6.64724 20.4165 6.84979 20.7203C7.05239 21.0241 7.30559 21.2267 7.60946 21.3787C7.91332 21.5306 8.26786 21.5306 8.62232 21.4799C8.97686 21.4293 9.28072 21.2267 9.53392 21.0241L12.37 18.1881L16.6747 21.9864C16.9786 22.2903 17.3837 22.4422 17.8395 22.4422C18.0421 22.4422 18.194 22.3915 18.3966 22.3409C18.7005 22.2396 18.9537 22.0877 19.1563 21.8851C19.3589 21.6825 19.5108 21.3787 19.5614 21.0748L23.6635 3.19755C23.7142 2.89369 23.7142 2.58983 23.6129 2.28596C23.4103 1.93145 23.2584 1.62759 23.0052 1.42502ZM17.7889 20.6697L8.77426 12.7692L21.7391 3.40013L17.7889 20.6697Z" fill="white"/>
</svg>
