<svg width="24" height="24" viewBox="0 0 24 24" fill="none" xmlns="http://www.w3.org/2000/svg">
<path d="M23.3328 6.19453L20.0296 9.49771C19.9247 12.8009 18.6664 15.9993 16.5691 18.3587C14.0524 21.1375 10.6443 22.5532 6.60709 22.5532C2.62229 22.6056 0.629885 20.6133 0.525021 20.5608C0.420158 20.456 0.315295 20.2987 0.315295 20.1414C0.262863 19.9841 0.262863 19.8268 0.315295 19.6695C0.367726 19.5122 0.47259 19.3549 0.577453 19.25C0.682317 19.1452 0.839611 19.0927 0.996906 19.0403C1.94068 18.8306 4.35253 18.0965 5.34873 16.7333C4.24767 16.1041 3.3039 15.3176 2.51742 14.3215C-0.313885 10.9134 -0.261454 6.61398 0.315295 3.62538C0.315295 3.46808 0.420158 3.31079 0.525021 3.20593C0.629885 3.04863 0.787178 2.94377 0.944473 2.94377C1.10177 2.89134 1.3115 2.89134 1.46879 2.94377C1.62609 2.9962 1.78338 3.10107 1.88824 3.25836C1.94068 3.31079 4.87685 6.92857 9.22866 8.08207V7.40046C9.22866 5.9848 9.80545 4.56915 10.8541 3.57295C11.9027 2.57675 13.2659 2 14.6816 2C15.6254 2 16.5167 2.26216 17.3556 2.73404C18.1421 3.20593 18.8236 3.88754 19.2955 4.67402H22.7036C22.8609 4.67402 23.0706 4.72644 23.1755 4.83131C23.3328 4.93617 23.4377 5.09347 23.4901 5.25076C23.5425 5.40806 23.5949 5.61779 23.5425 5.77508C23.5425 5.93238 23.4377 6.08967 23.3328 6.19453Z" fill="white"/>
</svg>
